<svg version="1.1" id="Layer_1" xmlns="http://www.w3.org/2000/svg" xmlns:xlink="http://www.w3.org/1999/xlink" x="0px" y="0px"
	 width="100%" viewBox="0 0 502 290" enable-background="new 0 0 502 290" xml:space="preserve">
<path fill="#ffffff" opacity="0" stroke="none" 
	d="
M362.000000,291.000000 
	C241.371262,291.000000 121.242516,291.000000 1.056888,291.000000 
	C1.056888,194.401794 1.056888,97.803551 1.056888,1.102651 
	C168.212036,1.102651 335.424133,1.102651 502.818115,1.102651 
	C502.818115,97.666382 502.818115,194.333160 502.818115,291.000000 
	C456.136932,291.000000 409.318481,291.000000 362.000000,291.000000 
M78.525520,214.985001 
	C84.521515,209.946609 90.507973,204.896820 96.515823,199.872604 
	C104.781578,192.960129 113.318558,186.343231 121.224945,179.042618 
	C124.872070,175.674942 127.490341,174.863235 132.030579,177.353119 
	C142.548737,183.121338 142.691437,182.861130 150.014236,180.203491 
	C143.435776,174.780838 137.153854,169.347000 130.568069,164.310471 
	C128.215973,162.511719 125.580475,162.297882 122.628845,164.723053 
	C107.804588,176.903214 92.744743,188.797363 77.727280,200.741211 
	C73.887756,203.794876 69.901222,206.663696 65.982239,209.617462 
	C65.591423,209.325058 65.200600,209.032669 64.809784,208.740280 
	C65.206192,206.416412 65.922470,204.095642 65.945168,201.768143 
	C66.060463,189.942886 65.956268,178.115601 66.049179,166.289948 
	C66.059761,164.943329 66.460869,163.296448 67.295891,162.308701 
	C72.858818,155.728333 72.076141,145.797455 68.596939,141.380508 
	C66.184326,138.317627 65.858337,135.372452 65.918015,131.760437 
	C66.128693,119.008690 66.000000,106.251328 66.000000,91.822937 
	C89.367065,110.294769 109.504150,130.512177 131.285919,148.895340 
	C138.414078,142.206879 145.419586,135.167633 152.979843,128.785522 
	C155.725830,126.467468 155.187637,125.387184 153.143936,123.676292 
	C149.651443,120.752525 145.970459,118.044830 142.577774,115.012398 
	C125.908890,100.113434 109.202820,85.253059 92.726059,70.143318 
	C83.476700,61.661331 72.857269,57.089500 60.324867,57.008850 
	C52.829567,56.960617 45.320892,57.264381 37.842850,56.901955 
	C33.275517,56.680599 31.836130,57.956722 31.886923,62.708961 
	C32.136139,86.025963 32.056038,109.347466 31.901907,132.666122 
	C31.888445,134.702957 30.945463,137.089676 29.664045,138.701614 
	C23.506258,146.447678 23.318691,155.214371 30.433910,162.703781 
	C33.017704,165.423447 33.177757,168.114197 32.927692,171.231293 
	C32.760078,173.320633 32.060013,175.386246 32.045879,177.465515 
	C31.991638,185.445053 32.147404,193.425735 32.169983,201.406128 
	C32.199558,211.860779 32.177231,222.315567 32.177231,232.999741 
	C40.843246,232.999741 48.154984,233.041397 55.465134,232.952667 
	C56.503998,232.940063 57.748959,232.552414 58.536217,231.900681 
	C65.075089,226.487442 71.528809,220.971329 78.525520,214.985001 
M352.515228,91.000000 
	C379.837433,91.000000 407.160278,91.087753 434.480927,90.883148 
	C437.707794,90.858986 441.823273,90.197853 443.986969,88.180489 
	C453.277557,79.518211 462.002655,70.248459 470.876465,61.144184 
	C471.196991,60.815327 470.917206,59.901344 470.917206,59.000000 
	C468.893097,59.000000 467.072357,59.000000 465.251648,59.000000 
	C428.100281,59.000000 390.948730,58.941265 353.797638,59.045479 
	C345.554352,59.068600 337.101135,58.635403 329.125946,60.271465 
	C319.986084,62.146458 310.979462,65.443657 302.436401,69.283272 
	C287.743866,75.886742 278.295319,89.197609 266.318420,99.296516 
	C257.702545,106.561447 249.390594,114.215004 241.316772,122.078865 
	C238.616791,124.708618 235.332565,128.494431 235.274323,131.803864 
	C234.790634,159.284027 234.956680,186.776703 235.140808,214.264145 
	C235.149200,215.516098 237.177856,217.799332 238.319656,217.834290 
	C247.806870,218.124619 257.308899,218.090332 266.800018,217.873260 
	C267.886047,217.848419 269.880310,216.064285 269.848175,215.152466 
	C269.580200,207.548584 270.921051,199.977478 267.454865,192.391235 
	C264.994202,187.005753 264.649017,180.501572 264.116211,174.430298 
	C263.585876,168.387741 264.000000,162.262314 264.000000,155.189331 
	C262.129791,156.246536 261.133453,156.973022 260.022766,157.406754 
	C256.795380,158.667084 253.573883,160.015930 250.230865,160.855286 
	C249.389084,161.066620 247.503830,159.680435 247.204178,158.692795 
	C246.959091,157.884949 248.154480,156.333054 249.082642,155.552917 
	C250.280548,154.546082 252.056946,154.215744 253.224091,153.185944 
	C262.835144,144.705704 272.463440,136.240051 281.884979,127.551437 
	C290.041901,120.029045 297.641327,111.876534 306.067810,104.682701 
	C310.368408,101.011238 315.768555,98.450127 320.981293,96.063240 
	C330.639038,91.641014 341.033295,90.841263 352.515228,91.000000 
M283.538574,141.976532 
	C276.949341,146.430435 275.769684,152.681686 275.765961,160.354462 
	C275.759918,172.790863 277.373688,184.718536 283.044678,195.736099 
	C294.923737,218.814743 314.855743,230.951614 340.044312,231.683151 
	C380.646515,232.862335 421.308502,232.110397 461.944031,231.915939 
	C471.159943,231.871857 479.685852,222.946533 479.178802,214.808746 
	C478.661499,206.507126 471.391785,198.795975 461.755341,198.871567 
	C422.453644,199.179855 383.145691,199.218231 343.846619,198.773224 
	C337.696075,198.703568 331.045105,196.626862 325.558228,193.718567 
	C313.964478,187.573303 309.450287,176.525711 309.095947,163.964554 
	C308.684418,149.375946 309.000000,134.766846 309.000000,118.835602 
	C300.071838,126.921959 292.051575,134.186020 283.538574,141.976532 
M204.008713,140.487076 
	C206.368591,138.465088 208.807083,136.527176 211.075043,134.406876 
	C222.174973,124.029617 233.306000,113.683640 244.279663,103.173775 
	C256.526184,91.444817 268.620819,79.557152 280.761169,67.717659 
	C281.652344,66.848579 282.378540,65.810341 284.202545,63.630310 
	C280.688507,63.356907 278.399170,62.970284 276.123779,63.039886 
	C268.546021,63.271683 260.972198,63.644775 253.398849,64.005295 
	C242.200409,64.538376 232.186005,68.737434 223.897812,75.848312 
	C212.348709,85.756912 201.578430,96.574463 190.495041,107.024445 
	C178.349808,118.475586 166.263306,129.989288 154.078705,141.398300 
	C148.815796,146.326202 143.370956,151.059784 138.002258,155.887482 
	C146.219818,163.530167 154.382568,171.121872 162.617279,178.780487 
	C163.689362,178.054764 165.006592,177.398727 166.032196,176.432983 
	C178.549011,164.646713 191.022980,152.814972 204.008713,140.487076 
z"/>
<path fill="#000000" opacity="1.000000" stroke="none" 
	d="
M78.266891,215.235657 
	C71.528809,220.971329 65.075089,226.487442 58.536217,231.900681 
	C57.748959,232.552414 56.503998,232.940063 55.465134,232.952667 
	C48.154984,233.041397 40.843246,232.999741 32.177231,232.999741 
	C32.177231,222.315567 32.199558,211.860779 32.169983,201.406128 
	C32.147404,193.425735 31.991638,185.445053 32.045879,177.465515 
	C32.060013,175.386246 32.760078,173.320633 32.927692,171.231293 
	C33.177757,168.114197 33.017704,165.423447 30.433910,162.703781 
	C23.318691,155.214371 23.506258,146.447678 29.664045,138.701614 
	C30.945463,137.089676 31.888445,134.702957 31.901907,132.666122 
	C32.056038,109.347466 32.136139,86.025963 31.886923,62.708961 
	C31.836130,57.956722 33.275517,56.680599 37.842850,56.901955 
	C45.320892,57.264381 52.829567,56.960617 60.324867,57.008850 
	C72.857269,57.089500 83.476700,61.661331 92.726059,70.143318 
	C109.202820,85.253059 125.908890,100.113434 142.577774,115.012398 
	C145.970459,118.044830 149.651443,120.752525 153.143936,123.676292 
	C155.187637,125.387184 155.725830,126.467468 152.979843,128.785522 
	C145.419586,135.167633 138.414078,142.206879 131.285919,148.895340 
	C109.504150,130.512177 89.367065,110.294769 66.000000,91.822937 
	C66.000000,106.251328 66.128693,119.008690 65.918015,131.760437 
	C65.858337,135.372452 66.184326,138.317627 68.596939,141.380508 
	C72.076141,145.797455 72.858818,155.728333 67.295891,162.308701 
	C66.460869,163.296448 66.059761,164.943329 66.049179,166.289948 
	C65.956268,178.115601 66.060463,189.942886 65.945168,201.768143 
	C65.922470,204.095642 65.206192,206.416412 64.809784,208.740280 
	C65.200600,209.032669 65.591423,209.325058 65.982239,209.617462 
	C69.901222,206.663696 73.887756,203.794876 77.727280,200.741211 
	C92.744743,188.797363 107.804588,176.903214 122.628845,164.723053 
	C125.580475,162.297882 128.215973,162.511719 130.568069,164.310471 
	C137.153854,169.347000 143.435776,174.780838 150.014236,180.203491 
	C142.691437,182.861130 142.548737,183.121338 132.030579,177.353119 
	C127.490341,174.863235 124.872070,175.674942 121.224945,179.042618 
	C113.318558,186.343231 104.781578,192.960129 96.515823,199.872604 
	C90.507973,204.896820 84.521515,209.946609 78.266891,215.235657 
M49.776726,158.755981 
	C53.805489,156.891403 55.511719,153.964127 55.095737,149.342163 
	C54.650509,144.395187 52.325180,141.414490 47.493549,141.004669 
	C43.568996,140.671783 38.631458,144.696182 37.993473,148.634171 
	C36.763752,156.224609 41.809452,160.030182 49.776726,158.755981 
z"/>
<path fill="#000000" opacity="1.000000" stroke="none" 
	d="
M352.018921,91.000000 
	C341.033295,90.841263 330.639038,91.641014 320.981293,96.063240 
	C315.768555,98.450127 310.368408,101.011238 306.067810,104.682701 
	C297.641327,111.876534 290.041901,120.029045 281.884979,127.551437 
	C272.463440,136.240051 262.835144,144.705704 253.224091,153.185944 
	C252.056946,154.215744 250.280548,154.546082 249.082642,155.552917 
	C248.154480,156.333054 246.959091,157.884949 247.204178,158.692795 
	C247.503830,159.680435 249.389084,161.066620 250.230865,160.855286 
	C253.573883,160.015930 256.795380,158.667084 260.022766,157.406754 
	C261.133453,156.973022 262.129791,156.246536 264.000000,155.189331 
	C264.000000,162.262314 263.585876,168.387741 264.116211,174.430298 
	C264.649017,180.501572 264.994202,187.005753 267.454865,192.391235 
	C270.921051,199.977478 269.580200,207.548584 269.848175,215.152466 
	C269.880310,216.064285 267.886047,217.848419 266.800018,217.873260 
	C257.308899,218.090332 247.806870,218.124619 238.319656,217.834290 
	C237.177856,217.799332 235.149200,215.516098 235.140808,214.264145 
	C234.956680,186.776703 234.790634,159.284027 235.274323,131.803864 
	C235.332565,128.494431 238.616791,124.708618 241.316772,122.078865 
	C249.390594,114.215004 257.702545,106.561447 266.318420,99.296516 
	C278.295319,89.197609 287.743866,75.886742 302.436401,69.283272 
	C310.979462,65.443657 319.986084,62.146458 329.125946,60.271465 
	C337.101135,58.635403 345.554352,59.068600 353.797638,59.045479 
	C390.948730,58.941265 428.100281,59.000000 465.251648,59.000000 
	C467.072357,59.000000 468.893097,59.000000 470.917206,59.000000 
	C470.917206,59.901344 471.196991,60.815327 470.876465,61.144184 
	C462.002655,70.248459 453.277557,79.518211 443.986969,88.180489 
	C441.823273,90.197853 437.707794,90.858986 434.480927,90.883148 
	C407.160278,91.087753 379.837433,91.000000 352.018921,91.000000 
M248.668198,137.113266 
	C255.321884,139.251907 257.835022,137.845703 259.037994,131.535278 
	C259.506409,129.078156 261.068970,127.554283 263.025360,125.730103 
	C267.037140,121.989449 269.914124,117.010536 273.103210,112.433357 
	C273.544739,111.799599 273.104706,110.551620 273.072815,109.587975 
	C272.082642,109.722687 270.855255,109.531799 270.144257,110.049744 
	C267.396698,112.051300 264.254211,113.866425 262.299500,116.518143 
	C259.291779,120.598358 255.953156,123.603775 251.008682,125.091782 
	C245.538879,126.737869 244.331909,131.995987 248.668198,137.113266 
z"/>
<path fill="#000000" opacity="1.000000" stroke="none" 
	d="
M283.784973,141.713303 
	C292.051575,134.186020 300.071838,126.921959 309.000000,118.835602 
	C309.000000,134.766846 308.684418,149.375946 309.095947,163.964554 
	C309.450287,176.525711 313.964478,187.573303 325.558228,193.718567 
	C331.045105,196.626862 337.696075,198.703568 343.846619,198.773224 
	C383.145691,199.218231 422.453644,199.179855 461.755341,198.871567 
	C471.391785,198.795975 478.661499,206.507126 479.178802,214.808746 
	C479.685852,222.946533 471.159943,231.871857 461.944031,231.915939 
	C421.308502,232.110397 380.646515,232.862335 340.044312,231.683151 
	C314.855743,230.951614 294.923737,218.814743 283.044678,195.736099 
	C277.373688,184.718536 275.759918,172.790863 275.765961,160.354462 
	C275.769684,152.681686 276.949341,146.430435 283.784973,141.713303 
M466.030548,216.704056 
	C466.024628,215.718201 466.160156,214.706985 465.988678,213.750824 
	C465.186798,209.279419 461.475952,206.389816 457.447052,207.008896 
	C452.571808,207.758057 449.179718,211.121750 450.212433,215.505905 
	C450.859283,218.251892 453.090729,221.847031 455.461517,222.701218 
	C459.919830,224.307541 464.137390,222.555115 466.030548,216.704056 
z"/>
<path fill="#000000" opacity="1.000000" stroke="none" 
	d="
M203.758392,140.741058 
	C191.022980,152.814972 178.549011,164.646713 166.032196,176.432983 
	C165.006592,177.398727 163.689362,178.054764 162.617279,178.780487 
	C154.382568,171.121872 146.219818,163.530167 138.002258,155.887482 
	C143.370956,151.059784 148.815796,146.326202 154.078705,141.398300 
	C166.263306,129.989288 178.349808,118.475586 190.495041,107.024445 
	C201.578430,96.574463 212.348709,85.756912 223.897812,75.848312 
	C232.186005,68.737434 242.200409,64.538376 253.398849,64.005295 
	C260.972198,63.644775 268.546021,63.271683 276.123779,63.039886 
	C278.399170,62.970284 280.688507,63.356907 284.202545,63.630310 
	C282.378540,65.810341 281.652344,66.848579 280.761169,67.717659 
	C268.620819,79.557152 256.526184,91.444817 244.279663,103.173775 
	C233.306000,113.683640 222.174973,124.029617 211.075043,134.406876 
	C208.807083,136.527176 206.368591,138.465088 203.758392,140.741058 
z"/>
<path fill="#FFFFFF" opacity="0" stroke="none" 
	d="
M49.376328,158.869385 
	C41.809452,160.030182 36.763752,156.224609 37.993473,148.634171 
	C38.631458,144.696182 43.568996,140.671783 47.493549,141.004669 
	C52.325180,141.414490 54.650509,144.395187 55.095737,149.342163 
	C55.511719,153.964127 53.805489,156.891403 49.376328,158.869385 
z"/>
<path fill="#FFFFFF" opacity="0" stroke="none" 
	d="
M248.355911,136.841324 
	C244.331909,131.995987 245.538879,126.737869 251.008682,125.091782 
	C255.953156,123.603775 259.291779,120.598358 262.299500,116.518143 
	C264.254211,113.866425 267.396698,112.051300 270.144257,110.049744 
	C270.855255,109.531799 272.082642,109.722687 273.072815,109.587982 
	C273.104706,110.551620 273.544739,111.799599 273.103210,112.433357 
	C269.914124,117.010536 267.037140,121.989449 263.025360,125.730103 
	C261.068970,127.554283 259.506409,129.078156 259.037994,131.535278 
	C257.835022,137.845703 255.321884,139.251907 248.355911,136.841324 
z"/>
<path fill="#FFFFFF" opacity="0" stroke="none" 
	d="
M466.015381,217.085800 
	C464.137390,222.555115 459.919830,224.307541 455.461517,222.701218 
	C453.090729,221.847031 450.859283,218.251892 450.212433,215.505905 
	C449.179718,211.121750 452.571808,207.758057 457.447052,207.008896 
	C461.475952,206.389816 465.186798,209.279419 465.988678,213.750824 
	C466.160156,214.706985 466.024628,215.718201 466.015381,217.085800 
z"/>
</svg>